<svg width="83" height="84" viewBox="0 0 83 84" fill="none" xmlns="http://www.w3.org/2000/svg">
<rect x="56.3042" y="30.8601" width="4.2796" height="4.2796" fill="white"/>
<g filter="url(#filter0_d_526_7584)">
<g clip-path="url(#clip0_526_7584)">
<rect x="10" y="7" width="62.9215" height="63" fill="#F57E96"/>
<rect x="22.9424" y="25.3162" width="2.97126" height="2.97126" fill="#C4C4C4"/>
<rect x="22.9424" y="31.2585" width="2.97126" height="2.97126" fill="#C4C4C4"/>
<rect x="19.9712" y="37.2012" width="2.97126" height="2.97126" fill="#C4C4C4"/>
<rect x="19.9712" y="43.1438" width="2.97126" height="2.97126" fill="#C4C4C4"/>
<rect x="25.9136" y="37.2012" width="2.97126" height="2.97126" fill="#C4C4C4"/>
<rect x="25.9136" y="25.3162" width="2.97126" height="2.97126" fill="#C4C4C4"/>
<rect x="25.9136" y="31.2585" width="2.97126" height="2.97126" fill="#C4C4C4"/>
<rect x="22.9424" y="37.2012" width="2.97126" height="2.97126" fill="#C4C4C4"/>
<rect x="28.8853" y="37.2012" width="2.97126" height="2.97126" fill="#C4C4C4"/>
<rect x="28.8853" y="46.115" width="2.97126" height="2.97126" fill="#C4C4C4"/>
<rect x="31.8564" y="46.115" width="2.97126" height="2.97126" fill="#C4C4C4"/>
<rect x="28.8853" y="34.23" width="2.97126" height="2.97126" fill="#C4C4C4"/>
<rect x="28.8853" y="43.1438" width="2.97126" height="2.97126" fill="#C4C4C4"/>
<rect x="34.8276" y="43.1438" width="2.97126" height="2.97126" fill="#C4C4C4"/>
<rect x="40.77" y="43.1438" width="2.97126" height="2.97126" fill="#C4C4C4"/>
<rect x="40.77" y="46.115" width="2.97126" height="2.97126" fill="#C4C4C4"/>
<rect x="46.7124" y="43.1438" width="2.97126" height="2.97126" fill="#C4C4C4"/>
<rect x="46.7124" y="46.115" width="2.97126" height="2.97126" fill="#C4C4C4"/>
<rect x="52.6553" y="43.1438" width="2.97126" height="2.97126" fill="#C4C4C4"/>
<rect x="52.6553" y="46.115" width="2.97126" height="2.97126" fill="#C4C4C4"/>
<rect x="52.6553" y="49.0862" width="2.97126" height="2.97126" fill="#C4C4C4"/>
<rect x="55.6265" y="49.0862" width="2.97126" height="2.97126" fill="#C4C4C4"/>
<rect x="31.8564" y="43.1438" width="2.97126" height="2.97126" fill="#C4C4C4"/>
<rect x="37.7988" y="43.1438" width="2.97126" height="2.97126" fill="#C4C4C4"/>
<rect x="43.7412" y="43.1438" width="2.97126" height="2.97126" fill="#C4C4C4"/>
<rect x="49.6841" y="43.1438" width="2.97126" height="2.97126" fill="#C4C4C4"/>
<rect x="46.7124" y="40.1724" width="2.97126" height="2.97126" fill="#C4C4C4"/>
<rect x="40.77" y="40.1724" width="2.97126" height="2.97126" fill="#C4C4C4"/>
<rect x="37.7988" y="40.1724" width="2.97126" height="2.97126" fill="#C4C4C4"/>
<rect x="37.7988" y="46.115" width="2.97126" height="2.97126" fill="#C4C4C4"/>
<rect x="43.7412" y="34.23" width="2.97126" height="2.97126" fill="#C4C4C4"/>
<rect x="43.7412" y="37.2012" width="2.97126" height="2.97126" fill="#C4C4C4"/>
<rect x="31.8564" y="34.23" width="2.97126" height="2.97126" fill="#C4C4C4"/>
<rect x="46.7124" y="34.23" width="2.97126" height="2.97126" fill="#C4C4C4"/>
<rect x="46.7124" y="37.2012" width="2.97126" height="2.97126" fill="#C4C4C4"/>
<rect x="46.7124" y="31.2585" width="2.97126" height="2.97126" fill="#C4C4C4"/>
<rect x="52.6553" y="31.2585" width="2.97126" height="2.97126" fill="#C4C4C4"/>
<rect x="52.6553" y="28.2874" width="2.97126" height="2.97126" fill="#C4C4C4"/>
<rect x="52.6553" y="25.3162" width="2.97126" height="2.97126" fill="#C4C4C4"/>
<rect x="52.6553" y="34.23" width="2.97126" height="2.97126" fill="#C4C4C4"/>
<rect x="34.8276" y="34.23" width="2.97126" height="2.97126" fill="#C4C4C4"/>
<rect x="49.6841" y="34.23" width="2.97126" height="2.97126" fill="#C4C4C4"/>
<rect x="49.6841" y="31.2585" width="2.97126" height="2.97126" fill="#C4C4C4"/>
<rect x="49.6841" y="28.2874" width="2.97126" height="2.97126" fill="#C4C4C4"/>
<rect x="55.6265" y="31.2585" width="2.97126" height="2.97126" fill="#C4C4C4"/>
<rect x="55.6265" y="37.2012" width="2.97126" height="2.97126" fill="#C4C4C4"/>
<rect x="58.5977" y="37.2012" width="2.97126" height="2.97126" fill="#C4C4C4"/>
<rect x="55.6265" y="28.2874" width="2.97126" height="2.97126" fill="#C4C4C4"/>
<rect x="55.6265" y="25.3162" width="2.97126" height="2.97126" fill="#C4C4C4"/>
<rect x="55.6265" y="34.23" width="2.97126" height="2.97126" fill="#C4C4C4"/>
<rect x="55.6265" y="40.1724" width="2.97126" height="2.97126" fill="#C4C4C4"/>
<rect x="58.5977" y="40.1724" width="2.97126" height="2.97126" fill="#C4C4C4"/>
<rect x="31.8564" y="31.2585" width="2.97126" height="2.97126" fill="#C4C4C4"/>
<rect x="28.8853" y="31.2585" width="2.97126" height="2.97126" fill="#C4C4C4"/>
<rect x="22.9424" y="28.2874" width="2.97126" height="2.97126" fill="#C4C4C4"/>
<rect x="22.9424" y="34.23" width="2.97126" height="2.97126" fill="#C4C4C4"/>
<rect x="37.7988" y="34.23" width="2.97126" height="2.97126" fill="#C4C4C4"/>
<rect x="37.7988" y="37.2012" width="2.97126" height="2.97126" fill="#C4C4C4"/>
<rect x="19.9712" y="40.1724" width="2.97126" height="2.97126" fill="#C4C4C4"/>
<rect x="19.9712" y="46.115" width="2.97126" height="2.97126" fill="#C4C4C4"/>
<rect x="25.9136" y="40.1724" width="2.97126" height="2.97126" fill="#C4C4C4"/>
<rect x="28.8853" y="28.2874" width="2.97126" height="2.97126" fill="#C4C4C4"/>
<rect x="25.9136" y="28.2874" width="2.97126" height="2.97126" fill="#C4C4C4"/>
<rect x="25.9136" y="34.23" width="2.97126" height="2.97126" fill="#C4C4C4"/>
<rect x="40.77" y="34.23" width="2.97126" height="2.97126" fill="#C4C4C4"/>
<rect x="40.77" y="37.2012" width="2.97126" height="2.97126" fill="#C4C4C4"/>
<rect x="22.9424" y="40.1724" width="2.97126" height="2.97126" fill="#C4C4C4"/>
<rect x="28.8853" y="40.1724" width="2.97126" height="2.97126" fill="#C4C4C4"/>
<rect x="28.8853" y="49.0862" width="2.97126" height="2.97126" fill="#C4C4C4"/>
<rect x="22.9424" y="49.0862" width="2.97126" height="2.97126" fill="#C4C4C4"/>
<rect x="25.9136" y="52.0574" width="2.97126" height="2.97126" fill="#C4C4C4"/>
<rect x="37.7988" y="52.0574" width="2.97126" height="2.97126" fill="#C4C4C4"/>
<rect x="31.8564" y="52.0574" width="2.97126" height="2.97126" fill="#C4C4C4"/>
<rect x="43.7412" y="52.0574" width="2.97126" height="2.97126" fill="#C4C4C4"/>
<rect x="49.6841" y="52.0574" width="2.97126" height="2.97126" fill="#C4C4C4"/>
<rect x="31.8564" y="49.0862" width="2.97126" height="2.97126" fill="#C4C4C4"/>
<rect x="25.9136" y="49.0862" width="2.97126" height="2.97126" fill="#C4C4C4"/>
<rect x="28.8853" y="52.0574" width="2.97126" height="2.97126" fill="#C4C4C4"/>
<rect x="40.77" y="52.0574" width="2.97126" height="2.97126" fill="#C4C4C4"/>
<rect x="34.8276" y="52.0574" width="2.97126" height="2.97126" fill="#C4C4C4"/>
<rect x="46.7124" y="52.0574" width="2.97126" height="2.97126" fill="#C4C4C4"/>
<rect x="52.6553" y="52.0574" width="2.97126" height="2.97126" fill="#C4C4C4"/>
<rect x="19.9712" y="25.3162" width="2.97126" height="2.97126" fill="black"/>
<rect x="22.9424" y="22.345" width="2.97126" height="2.97126" fill="black"/>
<rect x="25.9136" y="22.345" width="2.97126" height="2.97126" fill="black"/>
<rect x="28.8853" y="25.3162" width="2.97126" height="2.97126" fill="black"/>
<rect x="31.8564" y="28.2874" width="2.97126" height="2.97126" fill="black"/>
<rect x="34.8276" y="31.2585" width="2.97126" height="2.97126" fill="black"/>
<rect x="37.7988" y="31.2585" width="2.97126" height="2.97126" fill="black"/>
<rect x="40.77" y="31.2585" width="2.97126" height="2.97126" fill="black"/>
<rect x="43.7412" y="31.2585" width="2.97126" height="2.97126" fill="black"/>
<rect x="46.7124" y="28.2874" width="2.97126" height="2.97126" fill="black"/>
<rect x="49.6841" y="25.3162" width="2.97126" height="2.97126" fill="black"/>
<rect x="52.6553" y="22.345" width="2.97126" height="2.97126" fill="black"/>
<rect x="55.6265" y="22.345" width="2.97126" height="2.97126" fill="black"/>
<rect x="58.5977" y="25.3162" width="2.97126" height="2.97126" fill="black"/>
<rect x="58.5977" y="28.2874" width="2.97126" height="2.97126" fill="black"/>
<rect x="58.5977" y="31.2585" width="2.97126" height="2.97126" fill="black"/>
<rect x="58.5977" y="34.23" width="2.97126" height="2.97126" fill="black"/>
<rect x="19.9712" y="28.2874" width="2.97126" height="2.97126" fill="black"/>
<rect x="19.9712" y="31.2585" width="2.97126" height="2.97126" fill="black"/>
<rect x="19.9712" y="34.23" width="2.97126" height="2.97126" fill="black"/>
<rect x="17" y="37.2012" width="2.97126" height="2.97126" fill="black"/>
<rect x="17" y="40.1724" width="2.97126" height="2.97126" fill="black"/>
<rect x="17" y="43.1438" width="2.97126" height="2.97126" fill="black"/>
<rect x="17" y="46.115" width="2.97126" height="2.97126" fill="black"/>
<rect x="19.9712" y="49.0862" width="2.97126" height="2.97126" fill="black"/>
<rect x="22.9424" y="52.0574" width="2.97126" height="2.97126" fill="black"/>
<rect x="25.9136" y="55.0288" width="2.97126" height="2.97126" fill="black"/>
<rect x="28.8853" y="55.0288" width="2.97126" height="2.97126" fill="black"/>
<rect x="31.8564" y="55.0288" width="2.97126" height="2.97126" fill="black"/>
<rect x="34.8276" y="55.0288" width="2.97126" height="2.97126" fill="black"/>
<rect x="37.7988" y="55.0288" width="2.97126" height="2.97126" fill="black"/>
<rect x="40.77" y="55.0288" width="2.97126" height="2.97126" fill="black"/>
<rect x="43.7412" y="55.0288" width="2.97126" height="2.97126" fill="black"/>
<rect x="43.7412" y="40.1724" width="2.97126" height="2.97126" fill="black"/>
<rect x="34.8276" y="46.115" width="2.97126" height="2.97126" fill="black"/>
<rect x="34.8276" y="49.0862" width="2.97126" height="2.97126" fill="black"/>
<rect x="37.7988" y="49.0862" width="2.97126" height="2.97126" fill="black"/>
<rect x="40.77" y="49.0862" width="2.97126" height="2.97126" fill="black"/>
<rect x="43.7412" y="49.0862" width="2.97126" height="2.97126" fill="black"/>
<rect x="46.7124" y="49.0862" width="2.97126" height="2.97126" fill="black"/>
<rect x="49.6841" y="49.0862" width="2.97126" height="2.97126" fill="black"/>
<rect x="49.6841" y="46.115" width="2.97126" height="2.97126" fill="black"/>
<rect x="43.7412" y="46.115" width="2.97126" height="2.97126" fill="black"/>
<rect x="52.6553" y="40.1724" width="2.97126" height="2.97126" fill="black"/>
<rect x="34.8276" y="40.1724" width="2.97126" height="2.97126" fill="black"/>
<rect x="49.6841" y="40.1724" width="2.97126" height="2.97126" fill="black"/>
<rect x="31.8564" y="40.1724" width="2.97126" height="2.97126" fill="black"/>
<rect x="52.6553" y="37.2012" width="2.97126" height="2.97126" fill="black"/>
<rect x="34.8276" y="37.2012" width="2.97126" height="2.97126" fill="black"/>
<rect x="49.6841" y="37.2012" width="2.97126" height="2.97126" fill="white"/>
<rect x="31.8564" y="37.2012" width="2.97126" height="2.97126" fill="white"/>
<rect x="22.9424" y="46.115" width="2.97126" height="2.97126" fill="#FFAED7"/>
<rect x="55.6265" y="46.115" width="2.97126" height="2.97126" fill="#FFAED7"/>
<rect x="25.9136" y="46.115" width="2.97126" height="2.97126" fill="#FFAED7"/>
<rect x="58.5977" y="46.115" width="2.97126" height="2.97126" fill="#FFAED7"/>
<rect x="25.9136" y="43.1438" width="2.97126" height="2.97126" fill="#FFAED7"/>
<rect x="58.5977" y="43.1438" width="2.97126" height="2.97126" fill="#FFAED7"/>
<rect x="22.9424" y="43.1438" width="2.97126" height="2.97126" fill="#FFAED7"/>
<rect x="55.6265" y="43.1438" width="2.97126" height="2.97126" fill="#FFAED7"/>
<rect x="46.7124" y="55.0288" width="2.97126" height="2.97126" fill="black"/>
<rect x="49.6841" y="55.0288" width="2.97126" height="2.97126" fill="black"/>
<rect x="55.6265" y="52.0574" width="2.97126" height="2.97126" fill="black"/>
<rect x="52.6553" y="55.0288" width="2.97126" height="2.97126" fill="black"/>
<rect x="58.5977" y="49.0862" width="2.97126" height="2.97126" fill="black"/>
<rect x="61.5688" y="46.115" width="2.97126" height="2.97126" fill="black"/>
<rect x="61.5688" y="43.1438" width="2.97126" height="2.97126" fill="black"/>
<rect x="61.5688" y="40.1724" width="2.97126" height="2.97126" fill="black"/>
<rect x="61.5688" y="37.2012" width="2.97126" height="2.97126" fill="black"/>
</g>
<rect x="7" y="3" width="68.9215" height="70" rx="15" stroke="#D26178" stroke-width="6" shape-rendering="crispEdges"/>
</g>
<defs>
<filter id="filter0_d_526_7584" x="0" y="0" width="82.9214" height="84" filterUnits="userSpaceOnUse" color-interpolation-filters="sRGB">
<feFlood flood-opacity="0" result="BackgroundImageFix"/>
<feColorMatrix in="SourceAlpha" type="matrix" values="0 0 0 0 0 0 0 0 0 0 0 0 0 0 0 0 0 0 127 0" result="hardAlpha"/>
<feOffset dy="4"/>
<feGaussianBlur stdDeviation="2"/>
<feComposite in2="hardAlpha" operator="out"/>
<feColorMatrix type="matrix" values="0 0 0 0 0 0 0 0 0 0 0 0 0 0 0 0 0 0 0.25 0"/>
<feBlend mode="normal" in2="BackgroundImageFix" result="effect1_dropShadow_526_7584"/>
<feBlend mode="normal" in="SourceGraphic" in2="effect1_dropShadow_526_7584" result="shape"/>
</filter>
<clipPath id="clip0_526_7584">
<rect x="10" y="6" width="62.9215" height="64" rx="12" fill="white"/>
</clipPath>
</defs>
</svg>
