<svg width="84" height="84" viewBox="0 0 84 84" fill="none" xmlns="http://www.w3.org/2000/svg">
<g filter="url(#filter0_d_526_7900)">
<rect x="7" y="3" width="70" height="70" rx="15" stroke="#56327E" stroke-width="6" shape-rendering="crispEdges"/>
<rect x="10" y="7" width="64" height="63" fill="#6A3E9C"/>
</g>
<rect x="33.1538" y="20.6667" width="3.53846" height="3.83333" fill="black"/>
<rect x="33.1538" y="16.8333" width="3.53846" height="3.83333" fill="black"/>
<rect x="36.6924" y="13" width="3.53846" height="3.83333" fill="black"/>
<rect x="40.231" y="13" width="3.53846" height="3.83333" fill="black"/>
<rect x="50.8462" y="24.5" width="3.53846" height="3.83333" fill="black"/>
<rect x="19" y="32.1667" width="3.53846" height="3.83333" fill="black"/>
<rect x="61.4619" y="32.1667" width="3.53846" height="3.83333" fill="black"/>
<rect x="22.5381" y="36" width="3.53846" height="3.83333" fill="black"/>
<rect x="43.769" y="20.6667" width="3.53846" height="3.83333" fill="white"/>
<rect x="43.769" y="51.3333" width="3.53846" height="3.83333" fill="black"/>
<rect x="43.769" y="13" width="3.53846" height="3.83333" fill="black"/>
<rect x="57.9229" y="36" width="3.53846" height="3.83333" fill="black"/>
<rect x="22.5381" y="51.3333" width="3.53846" height="3.83333" fill="black"/>
<rect width="3.53846" height="3.83333" transform="matrix(-1 0 0 1 61.4619 51.3333)" fill="black"/>
<rect x="22.5381" y="55.1667" width="14.1538" height="3.83333" fill="black"/>
<rect width="7.07692" height="3.83333" transform="matrix(-1 0 0 1 54.3848 55.1667)" fill="black"/>
<rect x="26.0771" y="39.8333" width="3.53846" height="3.83333" fill="black"/>
<rect x="54.3848" y="39.8333" width="3.53846" height="3.83333" fill="black"/>
<rect x="26.0771" y="47.5" width="3.53846" height="3.83333" fill="black"/>
<rect width="3.53846" height="3.83333" transform="matrix(-1 0 0 1 57.9229 47.5)" fill="black"/>
<rect x="36.6924" y="51.3333" width="7.07692" height="3.83333" fill="black"/>
<rect x="29.6152" y="39.8333" width="3.53846" height="7.66667" fill="black"/>
<rect width="3.53846" height="7.66667" transform="matrix(-1 0 0 1 54.3848 39.8333)" fill="black"/>
<rect x="47.3076" y="16.8333" width="3.53846" height="7.66667" fill="black"/>
<rect x="19" y="28.3333" width="14.1538" height="3.83333" fill="black"/>
<rect x="54.3848" y="55.1667" width="3.53846" height="3.83333" fill="#EDD398"/>
<rect x="22.5381" y="32.1667" width="38.9231" height="3.83333" fill="#EDD398"/>
<rect x="26.0771" y="36" width="31.8462" height="3.83333" fill="#EDD398"/>
<rect x="36.6924" y="39.8333" width="14.1538" height="11.5" fill="#EDD398"/>
<rect x="29.6152" y="47.5" width="7.07692" height="7.66667" fill="#EDD398"/>
<rect x="26.0771" y="51.3333" width="3.53846" height="4.21667" fill="#EDD398"/>
<rect x="26.0771" y="55.1667" width="3.53846" height="3.83333" fill="#EDD398"/>
<rect x="22.5381" y="55.1667" width="3.53846" height="3.83333" fill="#EDD398"/>
<rect x="57.9229" y="55.1667" width="3.53846" height="3.83333" fill="#EDD398"/>
<rect x="54.3848" y="51.3333" width="3.53846" height="3.83333" fill="#EDD398"/>
<rect x="50.8462" y="47.5" width="3.53846" height="3.83333" fill="#EDD398"/>
<rect x="50.8462" y="51.3333" width="3.53846" height="3.83333" fill="#EDD398"/>
<rect x="47.3076" y="51.3333" width="3.53846" height="3.83333" fill="#EDD398"/>
<rect x="33.1538" y="24.5" width="17.6923" height="23" fill="#EDD398"/>
<rect x="36.6924" y="16.8333" width="10.6154" height="11.5" fill="#EDD398"/>
<rect x="50.8462" y="28.3333" width="14.1538" height="3.83333" fill="black"/>
<rect x="29.6152" y="24.5" width="3.53846" height="3.83333" fill="black"/>
<rect x="36.6924" y="32.1667" width="3.53846" height="7.66667" fill="black"/>
<rect x="43.769" y="32.1667" width="3.53846" height="7.66667" fill="black"/>
<rect x="51.0234" y="55.1667" width="10.4385" height="3.83333" fill="black"/>
<rect x="22.5381" y="55.1667" width="7.07692" height="3.83333" fill="black"/>
<defs>
<filter id="filter0_d_526_7900" x="0" y="0" width="84" height="84" filterUnits="userSpaceOnUse" color-interpolation-filters="sRGB">
<feFlood flood-opacity="0" result="BackgroundImageFix"/>
<feColorMatrix in="SourceAlpha" type="matrix" values="0 0 0 0 0 0 0 0 0 0 0 0 0 0 0 0 0 0 127 0" result="hardAlpha"/>
<feOffset dy="4"/>
<feGaussianBlur stdDeviation="2"/>
<feComposite in2="hardAlpha" operator="out"/>
<feColorMatrix type="matrix" values="0 0 0 0 0 0 0 0 0 0 0 0 0 0 0 0 0 0 0.25 0"/>
<feBlend mode="normal" in2="BackgroundImageFix" result="effect1_dropShadow_526_7900"/>
<feBlend mode="normal" in="SourceGraphic" in2="effect1_dropShadow_526_7900" result="shape"/>
</filter>
</defs>
</svg>
