<svg width="24" height="24" viewBox="0 0 24 24" fill="none" xmlns="http://www.w3.org/2000/svg">
<path d="M16 5.99979C14 6.99979 13 6.99979 12 6.99979H11.999C10.9993 6.99979 9.99928 6.99979 7.99995 5.99979C5.99995 4.99945 2.99976 5.49995 1.99995 14.9998C1.26677 21.9663 6.44971 18.2034 8.4709 15.0458C8.48939 15.0169 8.52083 15 8.55514 15L12 14.9998L15.4495 15C15.4813 15 15.5107 15.0146 15.5297 15.0401C17.8746 18.1988 22.7337 21.9705 22 14.9998C20.9999 5.49979 18 4.99979 16 5.99979Z" stroke="white"/>
<circle cx="16.35" cy="8.85" r="0.85" fill="white"/>
<circle cx="14.35" cy="10.85" r="0.85" fill="white"/>
<circle cx="16.35" cy="12.85" r="0.85" fill="white"/>
<circle cx="18.35" cy="10.85" r="0.85" fill="white"/>
<path d="M5 11H9" stroke="white" stroke-linecap="round"/>
<path d="M7 9L7 13" stroke="white" stroke-linecap="round"/>
</svg>
