<svg width="24" height="24" viewBox="0 0 24 24" fill="none" xmlns="http://www.w3.org/2000/svg">
<path d="M10.2993 4.61699C10.3278 4.96655 10.3487 5.22207 10.3639 5.40885C10.3899 5.72807 10.2593 6.03802 10.0452 6.27619C9.69171 6.66934 9.21243 7.32906 9.26478 7.97127L9.52955 11.2196" stroke="black" stroke-width="0.8"/>
<path d="M9.26479 7.9713C9.93211 8.1349 11.516 8.31099 12.5132 7.70652C13.5103 7.10206 14.6611 7.31345 15.1118 7.4947" stroke="black" stroke-width="0.8"/>
<path d="M13.5477 4.35243C13.5762 4.70199 13.597 4.95751 13.6123 5.14429C13.6383 5.46351 13.8173 5.74822 14.0672 5.94857C14.4797 6.27929 15.0595 6.85268 15.1118 7.49488L15.5183 11.4738" stroke="black" stroke-width="0.8"/>
<path d="M2 12.5C2 11.7 2.66667 11.5 3 11.5H21C21.3333 11.5 22 11.7 22 12.5C22 13.3 21.3333 13.5 21 13.5H3C2.66667 13.5 2 13.3 2 12.5Z" stroke="black"/>
<path d="M4 13.5L4.88429 20.1322C4.95053 20.629 5.37431 21 5.87552 21H18.1245C18.6257 21 19.0495 20.629 19.1157 20.1322L20 13.5" stroke="black"/>
<path d="M8.25 15C7.65 15 7.5 15.6 7.5 15.9V18.6C7.5 18.9 7.65 19.5 8.25 19.5C8.85 19.5 9 18.9 9 18.6V15.9C9 15.6 8.85 15 8.25 15Z" stroke="black" stroke-width="0.8"/>
<path d="M12 15C11.4 15 11.25 15.6 11.25 15.9V18.6C11.25 18.9 11.4 19.5 12 19.5C12.6 19.5 12.75 18.9 12.75 18.6V15.9C12.75 15.6 12.6 15 12 15Z" stroke="black" stroke-width="0.8"/>
<path d="M15.75 15C15.15 15 15 15.6 15 15.9V18.6C15 18.9 15.15 19.5 15.75 19.5C16.35 19.5 16.5 18.9 16.5 18.6V15.9C16.5 15.6 16.35 15 15.75 15Z" stroke="black" stroke-width="0.8"/>
<path d="M18.0775 5.33947C16.9146 6.90275 15.6204 9.77275 15 11.5L18.5 11.5C19.0584 9.94553 19.8567 7.94795 19.9554 6.03052C20.0443 4.30326 19.1053 3.95772 18.0775 5.33947Z" fill="white" stroke="black" stroke-width="0.8"/>
<path d="M17.8252 7.95092C17.9266 8.14775 18.1677 8.22549 18.3636 8.12456C18.5596 8.02362 18.6362 7.78224 18.5347 7.58541L17.8252 7.95092ZM16.7787 7.21856C17.1406 7.32946 17.58 7.47502 17.8252 7.95092L18.5347 7.58541C18.1208 6.78218 17.3648 6.56145 17.0095 6.45258L16.7787 7.21856Z" fill="black"/>
<path d="M17.2309 9.92333C17.3323 10.1202 17.5734 10.1979 17.7693 10.097C17.9652 9.99604 18.0418 9.75465 17.9404 9.55782L17.2309 9.92333ZM16.1844 9.19097C16.5463 9.30187 16.9856 9.44743 17.2309 9.92333L17.9404 9.55782C17.5265 8.75459 16.7705 8.53387 16.4152 8.42499L16.1844 9.19097Z" fill="black"/>
<path d="M13.4418 3.053L10.1934 3.31777C9.97688 3.33542 9.55435 3.50066 9.59672 4.0204C9.63908 4.54014 10.0828 4.63477 10.2993 4.61712L13.5477 4.35234C13.7643 4.33469 14.1868 4.16945 14.1444 3.64971C14.1021 3.12998 13.6584 3.03534 13.4418 3.053Z" stroke="black" stroke-width="0.8"/>
<path d="M7.50943 7.85777C7.70702 7.75898 7.78711 7.51871 7.68831 7.32111C7.58952 7.12352 7.34925 7.04343 7.15166 7.14223L7.50943 7.85777ZM6.89582 8.75209C6.89582 8.59646 6.92677 8.43896 7.01006 8.2932C7.09186 8.15005 7.23814 7.99341 7.50943 7.85777L7.15166 7.14223C6.75516 7.34048 6.48408 7.60121 6.31547 7.89629C6.14834 8.18875 6.09582 8.49035 6.09582 8.75209H6.89582Z" fill="black"/>
<path d="M6.5005 8.75412C6.10598 8.75412 5.91911 8.65962 5.56236 8.549C4.90559 8.34535 4.3355 8.81078 4.14046 9.31283C3.76403 10.2818 4.24053 11.2651 4.44816 11.5549H8.55184C8.75947 11.2651 9.23597 10.2818 8.85954 9.31283C8.6645 8.81078 8.09441 8.34535 7.43764 8.549C7.08089 8.65962 6.89402 8.75412 6.4995 8.75412" stroke="black" stroke-width="0.8"/>
</svg>
