<svg width="120" height="120" viewBox="0 0 120 120" fill="none" xmlns="http://www.w3.org/2000/svg">
<path d="M69.5 89.2L70.167 88.4549C69.7873 88.115 69.2127 88.115 68.833 88.4549L69.5 89.2ZM58.5 89.2L59.167 88.4549C58.7873 88.115 58.2127 88.115 57.833 88.4549L58.5 89.2ZM47.5 89.2L48.167 88.4549C47.7873 88.115 47.2127 88.115 46.833 88.4549L47.5 89.2ZM36.5 89.2L37.167 88.4549C36.7873 88.115 36.2127 88.115 35.833 88.4549L36.5 89.2ZM25.5 89.2L26.167 88.4549C25.7638 88.094 25.1467 88.1193 24.7744 88.5119L25.5 89.2ZM31.3335 93.8251L32.0005 94.5701L31.3335 93.8251ZM30.6665 93.8251L29.9995 94.5701L30.6665 93.8251ZM42.3335 93.8251L43.0005 94.5701L42.3335 93.8251ZM41.6665 93.8251L40.9995 94.5701L41.6665 93.8251ZM64.3335 93.8251L63.6665 93.08L64.3335 93.8251ZM63.6665 93.8251L64.3335 93.08L63.6665 93.8251ZM74.1665 93.3775L73.4995 94.1225L74.1665 93.3775ZM53.3335 93.8251L52.6665 93.08L53.3335 93.8251ZM52.6665 93.8251L53.3335 93.08L52.6665 93.8251ZM20.8628 94.0901L21.5884 94.7782L20.8628 94.0901ZM74 15.5V93.0049H76V15.5H74ZM74.8335 92.6324L70.167 88.4549L68.833 89.9451L73.4995 94.1225L74.8335 92.6324ZM68.833 88.4549L63.6665 93.08L65.0005 94.5701L70.167 89.9451L68.833 88.4549ZM64.3335 93.08L59.167 88.4549L57.833 89.9451L62.9995 94.5701L64.3335 93.08ZM57.833 88.4549L52.6665 93.08L54.0005 94.5701L59.167 89.9451L57.833 88.4549ZM53.3335 93.08L48.167 88.4549L46.833 89.9451L51.9995 94.5701L53.3335 93.08ZM46.833 88.4549L41.6665 93.08L43.0005 94.5701L48.167 89.9451L46.833 88.4549ZM42.3335 93.08L37.167 88.4549L35.833 89.9451L40.9995 94.5701L42.3335 93.08ZM35.833 88.4549L30.6665 93.08L32.0005 94.5701L37.167 89.9451L35.833 88.4549ZM31.3335 93.08L26.167 88.4549L24.833 89.9451L29.9995 94.5701L31.3335 93.08ZM24.7744 88.5119L20.1372 93.402L21.5884 94.7782L26.2256 89.8881L24.7744 88.5119ZM21 93.7461V15.5H19V93.7461H21ZM20.5 16H47.5V14H20.5V16ZM47.5 16H74.5V14H47.5V16ZM30.6665 93.08C30.8564 92.9101 31.1436 92.9101 31.3335 93.08L29.9995 94.5701C30.5691 95.08 31.4309 95.08 32.0005 94.5701L30.6665 93.08ZM41.6665 93.08C41.8564 92.9101 42.1436 92.9101 42.3335 93.08L40.9995 94.5701C41.5691 95.08 42.4309 95.08 43.0005 94.5701L41.6665 93.08ZM63.6665 93.08C63.8564 92.9101 64.1436 92.9101 64.3335 93.08L62.9995 94.5701C63.5691 95.08 64.4309 95.08 65.0005 94.5701L63.6665 93.08ZM74 93.0049C74 92.5727 74.5114 92.3441 74.8335 92.6324L73.4995 94.1225C74.4657 94.9875 76 94.3017 76 93.0049H74ZM52.6665 93.08C52.8564 92.9101 53.1436 92.9101 53.3335 93.08L51.9995 94.5701C52.5691 95.08 53.4309 95.08 54.0005 94.5701L52.6665 93.08ZM20.1372 93.402C20.4481 93.0741 21 93.2942 21 93.7461H19C19 95.1017 20.6556 95.7619 21.5884 94.7782L20.1372 93.402ZM76 15.5C76 14.6716 75.3284 14 74.5 14V16C74.2239 16 74 15.7761 74 15.5H76ZM21 15.5C21 15.7761 20.7761 16 20.5 16V14C19.6716 14 19 14.6716 19 15.5H21Z" fill="#969696"/>
<path d="M85 90L92.5 97.5L100 105" stroke="#969696" stroke-width="2" stroke-linecap="round"/>
<path d="M30 30H57.5" stroke="#969696" stroke-width="2" stroke-linecap="round"/>
<path d="M30 37.5H47.5" stroke="#969696" stroke-width="2" stroke-linecap="round"/>
<path d="M30 52.5H42.5" stroke="#969696" stroke-width="2" stroke-linecap="round"/>
<path d="M30 45H52.5" stroke="#969696" stroke-width="2" stroke-linecap="round"/>
<circle cx="70" cy="70" r="25" fill="white" stroke="#969696" stroke-width="2"/>
<path d="M65 65C65 62.5 66.9614 60 70 60C73.0386 60 75 62.5 75 65C75 67.0087 73.3861 69.0173 71.4551 71.026C70.536 71.9819 70 73.245 70 74.5711V75" stroke="#969696" stroke-width="2" stroke-linecap="round"/>
<circle cx="70" cy="81" r="1" fill="#969696"/>
</svg>
